<?xml version="1.0" encoding="utf-8"?>
<svg xmlns="http://www.w3.org/2000/svg" xmlns:bx="https://boxy-svg.com">
  <rect width="243" height="3.846" style="stroke: rgb(0, 0, 0); fill: rgb(255, 255, 255); stroke-opacity: 0;" y="251" x="29" bx:origin="1 0"/>
  <rect width="243" height="3.846" style="stroke: rgb(0, 0, 0); fill: rgb(255, 255, 255); stroke-opacity: 0;" y="231" x="29" bx:origin="1 0"/>
  <rect width="243" height="3.846" style="stroke: rgb(0, 0, 0); fill: rgb(255, 255, 255); stroke-opacity: 0;" y="211" x="29" bx:origin="1 0"/>
  <rect width="243" height="3.846" style="stroke: rgb(0, 0, 0); fill: rgb(255, 255, 255); stroke-opacity: 0;" y="191" x="29" bx:origin="1 0"/>
  <rect width="243" height="3.846" style="stroke: rgb(0, 0, 0); fill: rgb(255, 255, 255); stroke-opacity: 0;" y="171" x="29" bx:origin="1 0"/>
  <rect width="243" height="3.846" style="stroke: rgb(0, 0, 0); fill: rgb(255, 255, 255); stroke-opacity: 0;" y="151" x="29" bx:origin="1 0"/>
  <rect width="243" height="3.846" style="stroke: rgb(0, 0, 0); fill: rgb(255, 255, 255); stroke-opacity: 0;" y="131" x="29" bx:origin="1 0"/>
  <rect width="243" height="3.846" style="stroke: rgb(0, 0, 0); fill: rgb(255, 255, 255); stroke-opacity: 0;" y="111" x="29" bx:origin="1 0"/>
  <rect width="243" height="3.846" style="stroke: rgb(0, 0, 0); fill: rgb(255, 255, 255); stroke-opacity: 0;" y="91" x="29" bx:origin="1 0"/>
  <rect width="243" height="3.846" style="stroke: rgb(0, 0, 0); fill: rgb(255, 255, 255); stroke-opacity: 0;" y="71" x="29" bx:origin="1 0"/>
  <rect width="243" height="3.846" style="stroke: rgb(0, 0, 0); fill: rgb(255, 255, 255); stroke-opacity: 0;" x="29" y="51" bx:origin="1 0"/>
  <rect width="243" height="3.846" style="stroke: rgb(0, 0, 0); fill: rgb(255, 255, 255); stroke-opacity: 0;" y="200" transform="matrix(0, 1, -1, 0, 252.346008, 31.500004)" bx:origin="1 0"/>
  <rect width="243" height="3.846" style="stroke: rgb(0, 0, 0); fill: rgb(255, 255, 255); stroke-opacity: 0;" y="180" transform="matrix(0, 1, -1, 0, 252.346008, 31.500004)" bx:origin="1 0"/>
  <rect width="243" height="3.846" style="stroke: rgb(0, 0, 0); fill: rgb(255, 255, 255); stroke-opacity: 0;" y="160" transform="matrix(0, 1, -1, 0, 252.346008, 31.500004)" bx:origin="1 0"/>
  <rect width="243" height="3.846" style="stroke: rgb(0, 0, 0); fill: rgb(255, 255, 255); stroke-opacity: 0;" y="140" transform="matrix(0, 1, -1, 0, 252.346008, 31.500004)" bx:origin="1 0"/>
  <rect width="243" height="3.846" style="stroke: rgb(0, 0, 0); fill: rgb(255, 255, 255); stroke-opacity: 0;" y="120" transform="matrix(0, 1, -1, 0, 252.346008, 31.500004)" bx:origin="1 0"/>
  <rect width="243" height="3.846" style="stroke: rgb(0, 0, 0); fill: rgb(255, 255, 255); stroke-opacity: 0;" y="100" transform="matrix(0, 1, -1, 0, 252.346008, 31.500004)" bx:origin="1 0"/>
  <rect width="243" height="3.846" style="stroke: rgb(0, 0, 0); fill: rgb(255, 255, 255); stroke-opacity: 0;" y="80" transform="matrix(0, 1, -1, 0, 252.346008, 31.500004)" bx:origin="1 0"/>
  <rect width="243" height="3.846" style="stroke: rgb(0, 0, 0); fill: rgb(255, 255, 255); stroke-opacity: 0;" y="60" transform="matrix(0, 1, -1, 0, 252.346008, 31.500004)" bx:origin="1 0"/>
  <rect width="243" height="3.846" style="stroke: rgb(0, 0, 0); fill: rgb(255, 255, 255); stroke-opacity: 0;" y="40" transform="matrix(0, 1, -1, 0, 252.346008, 31.500004)" bx:origin="1 0"/>
  <rect width="243" height="3.846" style="stroke: rgb(0, 0, 0); fill: rgb(255, 255, 255); stroke-opacity: 0;" y="20" transform="matrix(0, 1, -1, 0, 252.346008, 31.500004)" bx:origin="1 0"/>
  <rect width="243" height="3.846" style="stroke: rgb(0, 0, 0); fill: rgb(255, 255, 255); stroke-opacity: 0;" transform="matrix(0, 1, -1, 0, 252.346008, 31.500004)" bx:origin="1 0"/>
</svg>