<?xml version="1.0" encoding="UTF-8"?>
<svg id="Layer_1" data-name="Layer 1" xmlns="http://www.w3.org/2000/svg" viewBox="0 0 413.45 429.76">
  <defs>
    <style>
      .cls-1 {
        fill: none;
        stroke: #fff;
        stroke-width: 2px;
      }
    </style>
  </defs>
  <line class="cls-1" x1="399.91" y1="342.98" x2="93.63" y2="12.55"/>
  <line class="cls-1" x1="386.5" y1="355.41" x2="80.22" y2="24.98"/>
  <line class="cls-1" x1=".69" y1="125.07" x2="130.04" y2="5.18"/>
  <line class="cls-1" x1="12.92" y1="138.26" x2="142.27" y2="18.38"/>
  <line class="cls-1" x1="24.98" y1="151.5" x2="154.33" y2="31.62"/>
  <line class="cls-1" x1="37.23" y1="164.73" x2="166.59" y2="44.84"/>
  <line class="cls-1" x1="49.49" y1="177.95" x2="178.84" y2="58.07"/>
  <line class="cls-1" x1="61.69" y1="190.88" x2="191.05" y2="70.99"/>
  <line class="cls-1" x1="74" y1="204.15" x2="203.35" y2="84.27"/>
  <line class="cls-1" x1="86.17" y1="217.29" x2="215.52" y2="97.4"/>
  <line class="cls-1" x1="98.53" y1="230.63" x2="227.89" y2="110.74"/>
  <line class="cls-1" x1="110.58" y1="243.62" x2="239.93" y2="123.73"/>
  <line class="cls-1" x1="122.79" y1="256.79" x2="252.14" y2="136.9"/>
  <line class="cls-1" x1="135.24" y1="270.23" x2="264.59" y2="150.34"/>
  <line class="cls-1" x1="147.49" y1="283.45" x2="276.84" y2="163.56"/>
  <line class="cls-1" x1="159.72" y1="296.64" x2="289.07" y2="176.75"/>
  <line class="cls-1" x1="171.78" y1="309.88" x2="301.13" y2="189.99"/>
  <line class="cls-1" x1="184.03" y1="323.11" x2="313.39" y2="203.22"/>
  <line class="cls-1" x1="196.29" y1="336.33" x2="325.64" y2="216.44"/>
  <line class="cls-1" x1="208.5" y1="349.26" x2="337.85" y2="229.37"/>
  <line class="cls-1" x1="220.8" y1="362.53" x2="350.15" y2="242.64"/>
  <line class="cls-1" x1="232.97" y1="375.66" x2="362.32" y2="255.77"/>
  <line class="cls-1" x1="245.33" y1="389" x2="374.69" y2="269.11"/>
  <line class="cls-1" x1="257.38" y1="402" x2="386.73" y2="282.11"/>
  <line class="cls-1" x1="269.59" y1="415.17" x2="398.94" y2="295.28"/>
  <line class="cls-1" x1="282.04" y1="428.61" x2="411.4" y2="308.72"/>
  <line class="cls-1" x1="412.71" y1="331.11" x2="106.44" y2=".68"/>
  <line class="cls-1" x1="373.36" y1="367.58" x2="67.09" y2="37.15"/>
  <line class="cls-1" x1="360.09" y1="379.88" x2="53.82" y2="49.45"/>
  <line class="cls-1" x1="346.82" y1="392.18" x2="40.55" y2="61.75"/>
  <line class="cls-1" x1="333.55" y1="404.48" x2="27.28" y2="74.05"/>
  <line class="cls-1" x1="320.28" y1="416.78" x2="14" y2="86.36"/>
  <line class="cls-1" x1="307.01" y1="429.08" x2=".73" y2="98.66"/>
</svg>